<svg width="20" height="20" viewBox="0 0 20 20" fill="none" xmlns="http://www.w3.org/2000/svg">
<path d="M8.94115 3.22388V2.98507C8.23529 3.22388 8.02353 3.58209 7.52938 4.17911C7.95294 2.38806 8.65882 1.19403 9.99997 0C11.3412 1.19403 12.0471 2.38806 12.4706 4.17911C11.9765 3.58209 11.6941 3.22388 11.0588 2.98507V7.76119V11.3433L10 12.2388L8.94115 11.3433V3.22388Z" fill="white"/>
<path d="M10 15.1799L11.3412 16.2985L15.2941 13.1343V7.16418C15.5059 7.28358 15.7882 7.46269 16 7.76119C16 6.56716 14.5177 4.47761 13.1765 3.58209V12.5373L10 15.1799Z" fill="white"/>
<path d="M6.82353 3.58209C5.41176 4.47761 4 6.56716 4 7.7612C4.21176 7.46269 4.49412 7.28358 4.70588 7.16418V13.1343L8.94115 16.7164V19.1045L10 20L11.0588 19.1045V16.5373L11.3412 16.2985L11.1294 16.1194L6.82353 12.5373V3.58209Z" fill="white"/>
</svg>
